<svg xmlns="http://www.w3.org/2000/svg" width="12" height="12" viewBox="0 0 12 12">
  <g id="link" transform="translate(0.993 1.001)">
    <g id="グループ_924" data-name="グループ 924" transform="translate(-0.993 -1)">
      <g id="グループ_923" data-name="グループ 923" transform="translate(0 0)">
        <path id="パス_1320" data-name="パス 1320" d="M3.981,181.961l-1.414,1.414a1.5,1.5,0,1,1-2.121-2.121l2.829-2.829a1.5,1.5,0,0,1,2.121,0,.5.5,0,1,0,.707-.707,2.5,2.5,0,0,0-3.535,0l-2.829,2.829a2.5,2.5,0,0,0,3.536,3.535l1.414-1.414a.5.5,0,1,0-.707-.707Z" transform="translate(0.993 -172.815)" fill="#32c7b8"/>
        <path id="パス_1321" data-name="パス 1321" d="M196.729-.268a2.5,2.5,0,0,0-3.536,0l-1.7,1.7a.5.5,0,1,0,.707.707l1.7-1.7a1.5,1.5,0,0,1,2.121,2.121L192.91,5.671a1.5,1.5,0,0,1-2.121,0,.5.5,0,0,0-.707.707,2.5,2.5,0,0,0,3.535,0l3.111-3.111A2.5,2.5,0,0,0,196.729-.268Z" transform="translate(-185.461 1)" fill="#32c7b8"/>
      </g>
    </g>
  </g>
</svg>
