<svg xmlns="http://www.w3.org/2000/svg" width="28" height="22.751" viewBox="0 0 28 22.751">
  <g id="sync" transform="translate(-16.05 -61)">
    <path id="パス_1309" data-name="パス 1309" d="M38.8,205.463a.93.93,0,0,0-1.313.14,9.535,9.535,0,0,1-16.964-5.938v-.344l1.056,1.015a.922.922,0,0,0,.648.257.96.96,0,0,0,.677-.286.931.931,0,0,0-.029-1.318l-2.683-2.567a.939.939,0,0,0-1.307.012L16.321,199a.932.932,0,0,0,1.318,1.318L18.66,199.3v.368a11.372,11.372,0,0,0,11.387,11.364,11.4,11.4,0,0,0,8.89-4.253A.935.935,0,0,0,38.8,205.463Z" transform="translate(0 -127.277)" fill="#fff"/>
    <path id="パス_1310" data-name="パス 1310" d="M122.264,71.716a.937.937,0,0,0-1.318,0l-1.05,1.05v-.4A11.39,11.39,0,0,0,108.508,61H108.5a11.519,11.519,0,0,0-4.929,1.12,11.342,11.342,0,0,0-3.961,3.156.934.934,0,0,0,1.458,1.167,9.525,9.525,0,0,1,16.964,5.921v.321L117,71.7a.932.932,0,1,0-1.289,1.348l2.683,2.567a.922.922,0,0,0,.648.257.932.932,0,0,0,.659-.274l2.567-2.567A.931.931,0,0,0,122.264,71.716Z" transform="translate(-78.49 0)" fill="#fff"/>
  </g>
</svg>
