<svg id="folder" xmlns="http://www.w3.org/2000/svg" width="20" height="16.219" viewBox="0 0 20 16.219">
  <g id="グループ_773" data-name="グループ 773" transform="translate(0 0)">
    <g id="グループ_772" data-name="グループ 772" transform="translate(0 0)">
      <path id="パス_1223" data-name="パス 1223" d="M15.767,49.861H5.451a.579.579,0,0,1-.579-.579v-.29a.59.59,0,0,0-.59-.59H1.18A1.18,1.18,0,0,0,0,49.583v9.928l1.514-7.366a.579.579,0,0,1,.567-.462H16.947v-.642A1.18,1.18,0,0,0,15.767,49.861Z" transform="translate(0 -48.403)" fill="#625f5f"/>
    </g>
  </g>
  <g id="グループ_775" data-name="グループ 775" transform="translate(0.263 4.438)">
    <g id="グループ_774" data-name="グループ 774" transform="translate(0 0)">
      <path id="パス_1224" data-name="パス 1224" d="M25.3,162.01H9.035L6.758,173.087a.586.586,0,0,0,.574.7H24.26a1.18,1.18,0,0,0,1.173-1.05l1.042-9.421A1.18,1.18,0,0,0,25.3,162.01Z" transform="translate(-6.746 -162.01)" fill="#625f5f"/>
    </g>
  </g>
</svg>
