<svg id="menu" xmlns="http://www.w3.org/2000/svg" width="20" height="14.444" viewBox="0 0 20 14.444">
  <path id="パス_1238" data-name="パス 1238" d="M19.167,124.335H.833a.833.833,0,1,1,0-1.667H19.167a.833.833,0,1,1,0,1.667Zm0,0" transform="translate(0 -116.279)" fill="#ccc"/>
  <path id="パス_1239" data-name="パス 1239" d="M19.167,1.667H.833A.833.833,0,0,1,.833,0H19.167a.833.833,0,1,1,0,1.667Zm0,0" fill="#ccc"/>
  <path id="パス_1240" data-name="パス 1240" d="M19.167,247H.833a.833.833,0,1,1,0-1.667H19.167a.833.833,0,1,1,0,1.667Zm0,0" transform="translate(0 -232.554)" fill="#ccc"/>
</svg>
