<svg id="search-interface-symbol" xmlns="http://www.w3.org/2000/svg" width="14" height="14" viewBox="0 0 14 14">
  <g id="_x34__4_">
    <g id="グループ_699" data-name="グループ 699">
      <path id="パス_1217" data-name="パス 1217" d="M13.873,13.239,10.259,9.682A5.717,5.717,0,0,0,11.787,5.8,5.844,5.844,0,0,0,5.9,0,5.844,5.844,0,0,0,.006,5.8a5.844,5.844,0,0,0,5.89,5.8A5.924,5.924,0,0,0,9.6,10.3l3.629,3.571a.458.458,0,0,0,.641,0A.441.441,0,0,0,13.873,13.239ZM5.9,10.7A4.945,4.945,0,0,1,.912,5.8,4.945,4.945,0,0,1,5.9.892,4.945,4.945,0,0,1,10.88,5.8,4.945,4.945,0,0,1,5.9,10.7Z" transform="translate(-0.006)" fill="#999"/>
    </g>
  </g>
</svg>
