<svg xmlns="http://www.w3.org/2000/svg" width="12" height="15" viewBox="0 0 12 15">
  <g id="new-document" transform="translate(-4 -1)">
    <path id="パス_1241" data-name="パス 1241" d="M15.758,4.768a2.545,2.545,0,0,0-.49-.707L12.939,1.732A2.541,2.541,0,0,0,11.172,1H6.5A2.5,2.5,0,0,0,4,3.5v10A2.5,2.5,0,0,0,6.5,16h7A2.5,2.5,0,0,0,16,13.5V5.829A2.516,2.516,0,0,0,15.758,4.768ZM14.293,4.5H13a.5.5,0,0,1-.5-.5V2.707Zm.707,9A1.5,1.5,0,0,1,13.5,15h-7A1.5,1.5,0,0,1,5,13.5V3.5A1.5,1.5,0,0,1,6.5,2h4.671a1.477,1.477,0,0,1,.328.04V4A1.5,1.5,0,0,0,13,5.5h1.96a1.477,1.477,0,0,1,.04.328Z" transform="translate(0 0)" fill="#27303e"/>
    <path id="パス_1242" data-name="パス 1242" d="M15.5,14H14V12.5a.5.5,0,1,0-1,0V14H11.5a.5.5,0,1,0,0,1H13v1.5a.5.5,0,1,0,1,0V15h1.5a.5.5,0,1,0,0-1Z" transform="translate(-3.5 -5.5)" fill="#27303e"/>
  </g>
</svg>
