<svg xmlns="http://www.w3.org/2000/svg" width="16" height="16.63" viewBox="0 0 16 16.63">
  <g id="edit" transform="translate(-6.014 -6.031)">
    <g id="グループ_877" data-name="グループ 877" transform="translate(6.966 6.771)">
      <path id="パス_1293" data-name="パス 1293" d="M9.721,19.624a.6.6,0,0,1-.435-.188.658.658,0,0,1,0-.9l9.622-10a.6.6,0,0,1,.871,0,.658.658,0,0,1,0,.9l-9.622,10A.6.6,0,0,1,9.721,19.624Z" transform="translate(-9.105 -8.343)" fill="#3b475a"/>
    </g>
    <g id="グループ_878" data-name="グループ 878" transform="translate(6.015 16.772)">
      <path id="パス_1294" data-name="パス 1294" d="M6.631,45.486a.6.6,0,0,1-.13-.014.64.64,0,0,1-.473-.76L6.98,40.1a.617.617,0,0,1,.731-.492.64.64,0,0,1,.473.76L7.233,44.98A.622.622,0,0,1,6.631,45.486Z" transform="translate(-6.015 -39.597)" fill="#3b475a"/>
    </g>
    <g id="グループ_879" data-name="グループ 879" transform="translate(10.449 10.391)">
      <path id="パス_1295" data-name="パス 1295" d="M21.034,30.938a.6.6,0,0,1-.435-.188.658.658,0,0,1,0-.9l9.622-10a.6.6,0,0,1,.871,0,.658.658,0,0,1,0,.9l-9.622,10a.6.6,0,0,1-.436.188Z" transform="translate(-20.418 -19.657)" fill="#3b475a"/>
    </g>
    <g id="グループ_880" data-name="グループ 880" transform="translate(6.014 20.392)">
      <path id="パス_1296" data-name="パス 1296" d="M6.63,53.179a.622.622,0,0,1-.6-.506.641.641,0,0,1,.473-.76l4.434-.989a.617.617,0,0,1,.731.492.641.641,0,0,1-.473.76l-4.434.989a.581.581,0,0,1-.13.014Z" transform="translate(-6.014 -50.91)" fill="#3b475a"/>
    </g>
    <g id="グループ_881" data-name="グループ 881" transform="translate(14.847 8.581)">
      <path id="パス_1297" data-name="パス 1297" d="M38.8,18.9a.6.6,0,0,1-.435-.188l-3.483-3.62a.658.658,0,0,1,0-.9.6.6,0,0,1,.871,0l3.483,3.62a.658.658,0,0,1,0,.9A.6.6,0,0,1,38.8,18.9Z" transform="translate(-34.702 -14)" fill="#3b475a"/>
    </g>
    <g id="グループ_882" data-name="グループ 882" transform="translate(16.588 6.031)">
      <path id="パス_1298" data-name="パス 1298" d="M44.457,11.671a.6.6,0,0,1-.436-.188.658.658,0,0,1,0-.905,2,2,0,0,0,0-2.715,1.82,1.82,0,0,0-2.612,0,.6.6,0,0,1-.871,0,.658.658,0,0,1,0-.905,3.019,3.019,0,0,1,4.354,0,3.315,3.315,0,0,1,0,4.525A.6.6,0,0,1,44.457,11.671Z" transform="translate(-40.357 -6.031)" fill="#3b475a"/>
    </g>
  </g>
</svg>
