<svg xmlns="http://www.w3.org/2000/svg" width="15" height="19" viewBox="0 0 15 19">
  <path id="_" data-name="" d="M28.223,20.385a3.583,3.583,0,0,0,2.5-1.353,4.4,4.4,0,0,0,.973-2.657A1.844,1.844,0,0,0,31.656,16a4.06,4.06,0,0,0-2.707,1.449,4.166,4.166,0,0,0-1.008,2.573,1.707,1.707,0,0,0,.035.338A1.308,1.308,0,0,0,28.223,20.385ZM25.293,35c1.137,0,1.641-.785,3.059-.785,1.441,0,1.758.761,3.023.761,1.242,0,2.074-1.184,2.859-2.343A10.8,10.8,0,0,0,35.5,29.939,4.159,4.159,0,0,1,33.039,26.1a4.323,4.323,0,0,1,1.98-3.624,4.285,4.285,0,0,0-3.645-1.884c-1.395,0-2.531.87-3.246.87-.773,0-1.793-.821-3-.821-2.3,0-4.629,1.957-4.629,5.653a11.934,11.934,0,0,0,1.934,6.293C23.348,33.913,24.145,35,25.293,35Z" transform="translate(-20.5 -16)"/>
</svg>
