<svg id="microphone" xmlns="http://www.w3.org/2000/svg" width="20" height="30.847" viewBox="0 0 20 30.847">
  <path id="パス_1246" data-name="パス 1246" d="M20.5,260.736a.92.92,0,0,0-1.84,0,8.16,8.16,0,1,1-16.32,0,.92.92,0,0,0-1.84,0,10.013,10.013,0,0,0,9.08,9.957v2.477H6.166a.92.92,0,0,0,0,1.84h8.668a.92.92,0,0,0,0-1.84H11.42v-2.477A10.013,10.013,0,0,0,20.5,260.736Zm0,0" transform="translate(-0.5 -244.163)" fill="#ccc"/>
  <path id="パス_1247" data-name="パス 1247" d="M74.6,22.463a5.9,5.9,0,0,0,5.89-5.89V5.89a5.89,5.89,0,0,0-11.78,0V16.573A5.9,5.9,0,0,0,74.6,22.463ZM70.555,5.89a4.05,4.05,0,0,1,8.1,0V16.573a4.05,4.05,0,0,1-8.1,0Zm0,0" transform="translate(-64.605)" fill="#ccc"/>
</svg>
