<svg xmlns="http://www.w3.org/2000/svg" width="14" height="14" viewBox="0 0 14 14">
  <g id="Layer_13" data-name="Layer 13" transform="translate(-1.25 -1.25)">
    <path id="パス_1243" data-name="パス 1243" d="M10.6,7.22A1.791,1.791,0,1,0,12.39,9.011V6.042a1.784,1.784,0,0,0-2.676-1.55L7.76,5.605a1.791,1.791,0,0,0-.905,1.556V8.725a1.81,1.81,0,0,0-.814-.2,1.791,1.791,0,1,0,1.791,1.791V7.162a.814.814,0,0,1,.41-.71L10.2,5.338a.814.814,0,0,1,1.218.7v1.38a1.81,1.81,0,0,0-.814-.2ZM6.041,11.127a.814.814,0,1,1,.814-.814A.814.814,0,0,1,6.041,11.127Zm4.558-1.3a.814.814,0,1,1,.814-.814A.814.814,0,0,1,10.6,9.825Z" transform="translate(-1.047 -1.048)" fill="#27303e"/>
    <path id="パス_1244" data-name="パス 1244" d="M12.157,1.25H4.343A3.093,3.093,0,0,0,1.25,4.343v7.814A3.093,3.093,0,0,0,4.343,15.25H9.552a.488.488,0,1,0,0-.977H4.343a2.123,2.123,0,0,1-2.116-2.116V4.343A2.123,2.123,0,0,1,4.343,2.227h7.814a2.123,2.123,0,0,1,2.116,2.116V9.552a.488.488,0,1,0,.977,0V4.343A3.093,3.093,0,0,0,12.157,1.25Z" transform="translate(0)" fill="#27303e"/>
    <path id="パス_1245" data-name="パス 1245" d="M19.645,17.2H18.18V15.738a.488.488,0,1,0-.977,0V17.2H15.738a.488.488,0,1,0,0,.977H17.2v1.465a.488.488,0,0,0,.977,0V18.18h1.465a.488.488,0,1,0,0-.977Z" transform="translate(-4.884 -4.884)" fill="#27303e"/>
  </g>
</svg>
