<svg id="sound-waves" xmlns="http://www.w3.org/2000/svg" width="20" height="20" viewBox="0 0 20 20">
  <path id="パス_1229" data-name="パス 1229" d="M2.986,164.821a1.493,1.493,0,1,0-2.986,0v4.254a1.493,1.493,0,1,0,2.986,0Z" transform="translate(0 -156.948)" fill="#625f5f" fill-rule="evenodd"/>
  <path id="パス_1230" data-name="パス 1230" d="M111.87,83.154a1.493,1.493,0,0,0-2.986,0V93.788a1.493,1.493,0,1,0,2.986,0Z" transform="translate(-104.631 -78.471)" fill="#625f5f" fill-rule="evenodd"/>
  <path id="パス_1231" data-name="パス 1231" d="M220.76,1.486a1.493,1.493,0,1,0-2.986,0V18.5a1.493,1.493,0,1,0,2.986,0Z" transform="translate(-209.267 0.007)" fill="#625f5f" fill-rule="evenodd"/>
  <path id="パス_1232" data-name="パス 1232" d="M329.651,83.154a1.493,1.493,0,0,0-2.986,0V93.788a1.493,1.493,0,1,0,2.986,0Z" transform="translate(-313.905 -78.471)" fill="#625f5f" fill-rule="evenodd"/>
  <path id="パス_1233" data-name="パス 1233" d="M438.541,164.821a1.493,1.493,0,1,0-2.986,0v4.254a1.493,1.493,0,1,0,2.986,0Z" transform="translate(-418.541 -156.948)" fill="#625f5f" fill-rule="evenodd"/>
</svg>
