<svg xmlns="http://www.w3.org/2000/svg" width="24" height="27.469" viewBox="0 0 24 27.469">
  <g id="repeat-button" transform="translate(-28.829 0)">
    <path id="パス_1282" data-name="パス 1282" d="M339.171,9.138a.808.808,0,0,1-.571-1.379l3.19-3.189L338.6,1.38A.808.808,0,0,1,339.743.237L343.5,4a.809.809,0,0,1,0,1.143L339.743,8.9A.806.806,0,0,1,339.171,9.138Z" transform="translate(-290.911)" fill="#fff"/>
    <path id="パス_1283" data-name="パス 1283" d="M30.338,72.436a.808.808,0,0,1-.808-.808V66.759a4.249,4.249,0,0,1,4.245-4.245H52.68a.808.808,0,1,1,0,1.616H33.775a2.632,2.632,0,0,0-2.629,2.629v4.869A.808.808,0,0,1,30.338,72.436Z" transform="translate(-0.659 -58.753)" fill="#fff"/>
    <path id="パス_1284" data-name="パス 1284" d="M48.584,237.552H29.638a.808.808,0,1,1,0-1.616H48.584a2.632,2.632,0,0,0,2.629-2.629v-4.966a.808.808,0,1,1,1.616,0v4.966A4.25,4.25,0,0,1,48.584,237.552Z" transform="translate(-0.001 -213.844)" fill="#fff"/>
    <path id="パス_1285" data-name="パス 1285" d="M33.4,313.821a.806.806,0,0,1-.571-.236l-3.761-3.761a.809.809,0,0,1,0-1.143l3.761-3.761a.808.808,0,0,1,1.143,1.143l-3.19,3.189,3.19,3.19a.808.808,0,0,1-.571,1.379Z" transform="translate(0 -286.352)" fill="#fff"/>
  </g>
</svg>
