<svg xmlns="http://www.w3.org/2000/svg" width="16" height="12.711" viewBox="0 0 16 12.711">
  <g id="speaker-filled-audio-tool" transform="translate(0 -9.565)">
    <path id="パス_1279" data-name="パス 1279" d="M8,20.907a.727.727,0,0,1-1.19.559L2.842,18.175H.727A.726.726,0,0,1,0,17.449V14.554a.727.727,0,0,1,.727-.727H2.842l3.972-3.292A.727.727,0,0,1,8,11.1v9.812ZM10.8,19.772l-.052,0a.726.726,0,0,1-.514-.213l-.1-.1a.726.726,0,0,1-.07-.947,4.225,4.225,0,0,0-.112-5.177.726.726,0,0,1,.05-.972l.1-.1a.711.711,0,0,1,.55-.212.728.728,0,0,1,.526.266,5.819,5.819,0,0,1,.152,7.158A.727.727,0,0,1,10.8,19.772Zm3,2.245a.727.727,0,0,1-.525.257h-.03a.726.726,0,0,1-.514-.213l-.1-.1a.727.727,0,0,1-.042-.981,7.743,7.743,0,0,0-.128-10.117.727.727,0,0,1,.029-.995l.1-.1a.707.707,0,0,1,.536-.214.727.727,0,0,1,.522.244A9.329,9.329,0,0,1,13.8,22.017Z" fill="#ccc"/>
  </g>
</svg>
