<svg xmlns="http://www.w3.org/2000/svg" width="20" height="20" viewBox="0 0 20 20">
  <g id="music" transform="translate(0 -0.004)">
    <g id="グループ_777" data-name="グループ 777" transform="translate(0 0.004)">
      <path id="パス_1234" data-name="パス 1234" d="M19.762.186a.725.725,0,0,0-.555-.178L6.35,1.437a.714.714,0,0,0-.636.71V14.876a4.133,4.133,0,0,0-2.143-.586C1.6,14.29,0,15.571,0,17.147S1.6,20,3.571,20s3.571-1.281,3.571-2.857V6.361L18.571,5.088v8.357a4.133,4.133,0,0,0-2.143-.584c-1.969,0-3.571,1.281-3.571,2.857s1.6,2.857,3.571,2.857S20,17.295,20,15.718v-15A.714.714,0,0,0,19.762.186Z" transform="translate(0 -0.004)" fill="#625f5f"/>
    </g>
  </g>
</svg>
