<svg xmlns="http://www.w3.org/2000/svg" width="20" height="20" viewBox="0 0 20 20">
  <path id="home" d="M15.629,20H4.379A1.877,1.877,0,0,1,2.5,18.125V10.833H1.046A1.043,1.043,0,0,1,0,9.791,1.056,1.056,0,0,1,.312,9.05L9.571.173a.625.625,0,0,1,.865,0l9.25,8.867A1.068,1.068,0,0,1,20,9.791a1.043,1.043,0,0,1-1.042,1.042H17.5v7.292A1.877,1.877,0,0,1,15.629,20ZM1.562,9.583H3.129a.625.625,0,0,1,.625.625v7.917a.625.625,0,0,0,.625.625h11.25a.625.625,0,0,0,.625-.625V10.208a.625.625,0,0,1,.625-.625h1.568L10,1.49Zm17.251.35h0Zm0,0" transform="translate(-0.004 0.001)" fill="#ccc"/>
</svg>
