<svg xmlns="http://www.w3.org/2000/svg" width="24" height="23.999" viewBox="0 0 24 23.999">
  <g id="edit" transform="translate(0 -0.001)">
    <path id="パス_1261" data-name="パス 1261" d="M19,12a1,1,0,0,0-1,1v8a1,1,0,0,1-1,1H3a1,1,0,0,1-1-1V7A1,1,0,0,1,3,6h8a1,1,0,1,0,0-2H3A3,3,0,0,0,0,7V21a3,3,0,0,0,3,3H17a3,3,0,0,0,3-3V13A1,1,0,0,0,19,12Z" transform="translate(0 0)" fill="#999"/>
    <path id="パス_1262" data-name="パス 1262" d="M9.376,11.089a.506.506,0,0,0-.137.255L8.532,14.88a.5.5,0,0,0,.491.6.473.473,0,0,0,.1-.01l3.535-.707a.5.5,0,0,0,.256-.137l7.912-7.912L17.289,3.177Z" transform="translate(0 0)" fill="#999"/>
    <path id="パス_1263" data-name="パス 1263" d="M23.268.732a2.5,2.5,0,0,0-3.535,0L18.349,2.116l3.535,3.535,1.384-1.384a2.5,2.5,0,0,0,0-3.535Z" transform="translate(0 0)" fill="#999"/>
  </g>
</svg>
